<svg width="514" height="153" viewBox="0 0 514 153" fill="none" xmlns="http://www.w3.org/2000/svg">
<path fill-rule="evenodd" clip-rule="evenodd" d="M216.163 96.3205C216.163 126.952 191.361 151.86 160.624 151.86C129.886 151.86 104.978 127.058 104.978 96.3205C104.872 65.5829 129.78 40.6748 160.518 40.6748C191.255 40.6748 216.163 65.4769 216.163 96.3205ZM186.486 96.2145C186.486 81.9056 174.826 70.2465 160.518 70.2465C146.209 70.2465 134.55 81.9056 134.55 96.2145C134.55 110.629 146.209 122.182 160.518 122.182C174.826 122.182 186.486 110.629 186.486 96.2145Z" fill="white"/>
<path d="M94.2727 55.9376C94.838 56.3616 95.368 56.8915 95.8626 57.5275C95.2973 57.0329 94.7674 56.5029 94.2727 55.9376Z" fill="white"/>
<path d="M50.4981 71.7304C51.876 71.4124 53.3599 71.2004 54.7378 71.0944C63.4291 70.6705 70.8486 73.9562 77.844 78.8318C83.4616 82.7535 89.0791 82.4355 93.5308 78.7258C96.7105 75.9701 98.3004 71.9424 97.9824 67.8087C97.9824 67.8087 97.9824 67.7027 97.9824 67.5967C97.8764 66.3248 97.4525 65.1589 96.9225 63.993C94.4847 57.5275 86.7473 44.9145 63.6411 41.8407C63.3231 41.8407 63.0052 41.7347 62.6872 41.7347C60.8853 41.5227 59.1895 41.3108 57.3876 41.3108C57.0343 41.3108 56.7163 41.3108 56.4337 41.3108C51.982 41.0988 47.5304 41.4167 43.1847 42.3707C29.6178 45.3384 17.7467 53.7118 10.3273 65.4769C5.34567 72.2603 2.27191 80.5277 1.42397 89.113C1.31798 89.855 1.31798 90.4909 1.21199 91.1269C0.258066 100.454 1.63596 109.887 5.23968 118.579C5.34567 118.897 5.45166 119.109 5.55765 119.427C5.76964 119.957 6.08761 120.487 6.29959 121.017C12.0231 132.57 21.6684 141.685 33.4335 146.985C37.9911 148.68 42.6548 149.846 47.4244 150.588H47.5304H47.8484C48.6963 150.659 49.5442 150.765 50.3922 150.906C56.7517 151.542 61.2033 151.436 64.0651 150.694C75.6182 149.21 86.2174 143.487 93.7428 134.583C99.0424 128.542 99.1483 119.851 94.4847 114.657C89.9271 109.887 83.5676 110.205 76.1481 114.763C71.6965 117.625 66.8209 119.745 61.7333 121.017C48.0603 124.09 34.4934 115.611 31.4196 101.938C28.3459 88.3711 36.8252 74.8041 50.4981 71.7304Z" fill="white"/>
<path d="M469.589 71.0944C478.387 70.6704 485.912 73.9562 493.014 78.8318C498.631 82.7535 504.461 82.4355 508.912 78.7258C512.092 75.97 513.788 71.9423 513.364 67.8087C513.364 67.7027 513.364 67.7027 513.364 67.5967C513.258 66.3248 512.834 65.1589 512.304 63.993C509.866 57.5275 502.023 44.9144 478.599 41.8407C478.175 41.7347 477.645 41.7347 477.221 41.6287C475.631 41.4167 473.935 41.3107 472.239 41.2047C471.921 41.2047 471.603 41.2047 471.179 41.2047C466.728 40.9928 462.17 41.3107 457.718 42.2647C443.939 45.2324 431.962 53.4998 424.331 65.3709C419.243 72.3663 416.064 80.6337 415.322 89.219C415.216 89.9609 415.216 90.5969 415.11 91.2328C414.156 100.56 415.534 109.993 419.137 118.685C419.243 119.003 419.349 119.215 419.455 119.533C419.667 120.063 419.985 120.593 420.303 121.123C422.317 124.938 424.649 128.648 427.511 131.934C433.022 138.399 440.018 143.593 447.755 147.09C452.313 148.786 457.082 149.952 461.958 150.694H462.064H462.382C463.23 150.836 464.078 150.942 464.926 151.012C471.391 151.648 475.843 151.542 478.811 150.8C490.47 149.316 501.175 143.593 508.912 134.795C514.318 128.754 514.424 120.063 509.654 114.869C505.203 109.993 498.737 110.311 491.106 114.869C486.548 117.731 481.673 119.851 476.479 121.123C462.594 124.408 448.709 115.717 445.529 101.832C445.317 100.984 445.211 100.03 445.105 99.1822C443.621 84.8733 454.963 71.8364 469.589 71.0944Z" fill="white"/>
<path d="M397.939 27.3198C391.686 33.5734 381.722 33.5734 375.469 27.3198C369.215 21.1723 369.215 11.1031 375.469 4.84959C381.722 -1.29793 391.686 -1.29793 397.939 4.84959C404.193 11.1031 404.193 21.1723 397.939 27.3198Z" fill="white"/>
<path d="M386.704 40.6748C373.561 40.6748 370.805 62.9331 370.805 71.3064V121.229C370.805 128.224 372.077 136.491 375.469 142.851C377.589 146.773 381.51 151.86 386.704 151.86C399.847 151.86 402.603 129.602 402.603 121.229V71.2004C402.603 64.205 401.331 55.8316 397.939 49.5781C395.819 45.6564 391.898 40.6748 386.704 40.6748Z" fill="white"/>
<path d="M333.92 46.0804C328.832 38.767 322.155 39.1909 315.689 45.4444C301.593 57.5275 289.721 88.6891 289.721 88.6891C285.8 77.03 270.961 53.6058 265.555 46.0804C264.072 44.0665 262.058 42.4767 259.832 41.5227C258.136 40.8868 256.44 40.5688 254.638 40.6748C252.412 40.8868 250.293 41.5227 248.279 42.6887C245.205 44.8085 242.237 48.6242 239.587 54.1358C228.034 77.4539 223.901 102.468 224.007 128.118C224.007 128.118 221.887 147.196 232.062 151.118C232.274 151.224 232.592 151.33 232.804 151.436C233.122 151.542 233.44 151.648 233.758 151.648H233.864H233.97H234.288C246.265 153.026 252.942 128.012 252.942 128.012L259.62 103.952C263.86 113.173 273.717 132.464 284.422 137.869C285.694 138.611 287.178 139.035 288.662 139.247C301.169 140.731 314.63 114.233 319.823 102.786C321.731 114.657 327.561 144.547 340.386 150.694C341.233 151.118 342.187 151.436 343.141 151.648H343.247C347.063 152.178 350.879 149.846 352.999 144.865C354.588 140.837 355.436 136.597 355.542 132.358C356.178 111.265 353.105 90.1729 346.321 70.1405C343.247 61.5552 339.114 53.4998 333.92 46.0804Z" fill="white"/>
</svg>
